<svg width="1095" height="212" viewBox="0 0 1095 212" fill="none" xmlns="http://www.w3.org/2000/svg">
<path d="M54.131 6.99996L48.2924 7.12066C35.3849 7.38748 25.0606 17.9274 25.0606 30.8376V30.8376V103.753V176.868V176.868C11.1239 177.203 0 188.596 0 202.537V211.323H123.298H248V201.728C248 188.22 237.049 177.269 223.541 177.269V177.269V105.756V34.243V31.0573C223.541 18.324 213.218 8.00153 200.485 8.00153V8.00153L127.308 7.6009L54.131 6.99996ZM126.012 37.5483C163.682 37.5483 194.22 68.0859 194.22 105.756V105.756V105.756C194.22 128.447 185.155 150.199 169.04 166.174L123.499 211.323H123.298L78.0042 166.228C61.9199 150.214 52.8779 128.453 52.8779 105.756V105.756V105.756C52.8779 68.0859 83.4155 37.5483 121.086 37.5483H126.012Z" fill="white"/>
<path d="M80 73.5325L82.014 75.0894L82.9616 77.1107L83.8683 75.028L86 73.5325L84.1457 72.8459L82.9616 71.1012L82.014 72.8459L80 73.5325Z" fill="white"/>
<path d="M130.333 75.1384L128 75.6469L130.333 77.0336L131.578 79.1139L132.667 77.0336L135 75.6469L132.667 75.1384L131.578 73.1044L130.333 75.1384Z" fill="white"/>
<path d="M137.806 94.9741L132.538 94.5987C131.351 94.5141 130.173 94.3237 129.02 94.0299V94.0299C128.272 93.8392 127.48 94.0963 126.987 94.6906L121.202 101.657C120.204 102.86 119.658 104.374 119.658 105.936V105.936C119.658 106.828 119.836 107.711 120.181 108.533L121.877 112.565L115.244 141.858C113.8 148.235 114.777 154.921 117.986 160.618V160.618C119.74 163.731 122.108 166.455 124.946 168.625L128.534 171.367L135.332 176.448C137.437 178.021 137.365 181.199 135.192 182.675V182.675L127.825 187.231C123.361 189.991 120.644 194.866 120.644 200.115V200.115V208.307L124.096 211.323L127.055 208.307L124.409 201.748C123.754 200.125 123.585 198.346 123.922 196.629V196.629C124.352 194.44 125.575 192.488 127.358 191.148L137.895 183.226C139.006 182.391 139.739 181.148 139.932 179.772V179.772C140.201 177.849 139.383 175.934 137.806 174.8L129.182 168.596C121.199 162.853 118.725 152.073 123.406 143.423V143.423L128.534 133.372L137.122 132.833C143.456 132.436 148.796 127.97 150.308 121.807V121.807C150.586 120.675 150.726 119.514 150.726 118.349V115.443C150.726 110.561 149.719 105.732 147.767 101.256V101.256L167 77.1323V71.1012L137.806 94.9741ZM147.348 116.608C147.139 119.374 146.086 122.009 144.33 124.156L143.768 124.844C143.476 125.2 143.144 125.522 142.778 125.802V125.802C141.975 126.415 141.029 126.814 140.029 126.959L138.817 127.136C137.066 127.391 135.297 126.795 134.058 125.531V125.531V125.531C132.879 124.33 132.597 122.51 133.358 121.008L135.241 117.289V117.289C137.437 113.209 140.684 109.79 144.645 107.386L144.808 107.287V107.287C146.712 109.712 147.638 112.761 147.406 115.835L147.348 116.608Z" fill="white"/>
<path d="M91.3845 128.525L86 130.306L91.3845 133.104L93.548 139.209L95.7115 133.104L101 129.899L95.7115 128.525L93.548 123.184L91.3845 128.525Z" fill="white"/>
<path d="M298.08 79.32C298.08 77.32 298.84 75.6 300.36 74.16C301.96 72.72 303.88 72 306.12 72H360.48C360.48 76.8 359.64 80.32 357.96 82.56C356.36 84.72 353.72 85.8 350.04 85.8H314.16V106.08H346.08C346.08 110.88 345.24 114.4 343.56 116.64C341.96 118.8 339.32 119.88 335.64 119.88H314.16V145.68C314.16 149.68 312.88 152.6 310.32 154.44C307.76 156.2 303.68 157.08 298.08 157.08V79.32ZM406.591 157.08C399.871 157.08 393.791 155.72 388.351 153C382.991 150.28 378.791 146.52 375.751 141.72C372.711 136.92 371.191 131.48 371.191 125.4V82.8C371.191 78.96 372.551 76.04 375.271 74.04C377.991 71.96 381.991 70.92 387.271 70.92V125.4C387.271 130.76 389.031 135.04 392.551 138.24C396.071 141.44 400.751 143.04 406.591 143.04C412.431 143.04 417.111 141.44 420.631 138.24C424.151 135.04 425.911 130.76 425.911 125.4V82.8C425.911 78.88 427.271 75.92 429.991 73.92C432.711 71.92 436.711 70.92 441.991 70.92V125.4C441.991 131.48 440.471 136.92 437.431 141.72C434.391 146.52 430.151 150.28 424.711 153C419.351 155.72 413.311 157.08 406.591 157.08ZM455.463 79.32C455.463 77.32 456.223 75.6 457.743 74.16C459.343 72.72 461.263 72 463.503 72H517.023C517.023 76.8 516.183 80.32 514.503 82.56C512.903 84.72 510.263 85.8 506.583 85.8H471.543V106.68H503.463C503.463 111.48 502.623 115 500.943 117.24C499.343 119.4 496.703 120.48 493.023 120.48H471.543V142.2H509.103C512.703 142.2 515.303 143.32 516.903 145.56C518.583 147.72 519.423 151.2 519.423 156H463.503C461.263 156 459.343 155.32 457.743 153.96C456.223 152.52 455.463 150.76 455.463 148.68V79.32ZM539.449 156C537.129 156 535.129 155.16 533.449 153.48C531.849 151.8 531.049 149.8 531.049 147.48V82.8C531.049 78.8 532.369 75.84 535.009 73.92C537.649 71.92 541.689 70.92 547.129 70.92V142.08H579.529C583.289 142.08 586.129 143.28 588.049 145.68C589.969 148 590.929 151.44 590.929 156H539.449ZM640.339 156C638.179 156 636.299 155.28 634.699 153.84C633.099 152.4 632.299 150.68 632.299 148.68V79.32C632.299 77.32 633.059 75.6 634.579 74.16C636.179 72.72 638.099 72 640.339 72H672.619C680.299 72 686.419 74.16 690.979 78.48C695.619 82.72 697.939 88.44 697.939 95.64C697.939 99.08 697.019 102.36 695.179 105.48C693.339 108.52 690.899 110.88 687.859 112.56V112.92C692.019 114.36 695.299 116.72 697.699 120C700.179 123.28 701.419 127.04 701.419 131.28C701.419 136.08 700.299 140.36 698.059 144.12C695.819 147.88 692.699 150.8 688.699 152.88C684.699 154.96 680.139 156 675.019 156H640.339ZM672.379 107.28C675.019 107.28 677.259 106.2 679.099 104.04C681.019 101.88 681.979 99.28 681.979 96.24C681.979 92.96 681.099 90.36 679.339 88.44C677.659 86.52 675.339 85.56 672.379 85.56H647.899V107.28H672.379ZM674.779 142.44C678.059 142.44 680.659 141.48 682.579 139.56C684.499 137.56 685.459 134.84 685.459 131.4C685.459 128.04 684.499 125.44 682.579 123.6C680.739 121.68 678.139 120.72 674.779 120.72H647.899V142.44H674.779ZM747.841 157.08C741.121 157.08 735.041 155.72 729.601 153C724.241 150.28 720.041 146.52 717.001 141.72C713.961 136.92 712.441 131.48 712.441 125.4V82.8C712.441 78.96 713.801 76.04 716.521 74.04C719.241 71.96 723.241 70.92 728.521 70.92V125.4C728.521 130.76 730.281 135.04 733.801 138.24C737.321 141.44 742.001 143.04 747.841 143.04C753.681 143.04 758.361 141.44 761.881 138.24C765.401 135.04 767.161 130.76 767.161 125.4V82.8C767.161 78.88 768.521 75.92 771.241 73.92C773.961 71.92 777.961 70.92 783.241 70.92V125.4C783.241 131.48 781.721 136.92 778.681 141.72C775.641 146.52 771.401 150.28 765.961 153C760.601 155.72 754.561 157.08 747.841 157.08ZM804.753 156C802.513 156 800.593 155.32 798.993 153.96C797.473 152.52 796.713 150.76 796.713 148.68V79.32C796.713 77.24 797.473 75.52 798.993 74.16C800.513 72.72 802.433 72 804.753 72H831.393C838.513 72 844.793 73.36 850.233 76.08C855.753 78.8 859.993 82.64 862.953 87.6C865.993 92.48 867.513 98.08 867.513 104.4V123.36C867.513 129.68 865.993 135.32 862.953 140.28C859.913 145.24 855.633 149.12 850.113 151.92C844.673 154.64 838.433 156 831.393 156H804.753ZM830.193 142.2C837.153 142.2 842.433 140.64 846.033 137.52C849.633 134.32 851.433 129.64 851.433 123.48V104.16C851.433 98.16 849.633 93.6 846.033 90.48C842.433 87.36 837.153 85.8 830.193 85.8H812.793V142.2H830.193ZM887.604 156C885.364 156 883.444 155.32 881.844 153.96C880.324 152.52 879.564 150.76 879.564 148.68V79.32C879.564 77.24 880.324 75.52 881.844 74.16C883.364 72.72 885.284 72 887.604 72H914.244C921.364 72 927.644 73.36 933.084 76.08C938.604 78.8 942.844 82.64 945.804 87.6C948.844 92.48 950.364 98.08 950.364 104.4V123.36C950.364 129.68 948.844 135.32 945.804 140.28C942.764 145.24 938.484 149.12 932.964 151.92C927.524 154.64 921.284 156 914.244 156H887.604ZM913.044 142.2C920.004 142.2 925.284 140.64 928.884 137.52C932.484 134.32 934.284 129.64 934.284 123.48V104.16C934.284 98.16 932.484 93.6 928.884 90.48C925.284 87.36 920.004 85.8 913.044 85.8H895.644V142.2H913.044ZM982.388 125.88L952.748 72.6C953.468 72.12 954.628 71.72 956.228 71.4C957.828 71.08 959.268 70.92 960.548 70.92C963.508 70.92 965.988 71.52 967.988 72.72C969.988 73.92 971.668 75.8 973.028 78.36L990.068 110.4L986.828 117.24L988.028 117.72L1007.83 78.36C1010.31 73.4 1014.47 70.92 1020.31 70.92C1021.59 70.92 1023.03 71.08 1024.63 71.4C1026.23 71.72 1027.39 72.12 1028.11 72.6L998.468 126V145.2C998.468 149.04 997.068 152 994.268 154.08C991.548 156.08 987.588 157.08 982.388 157.08V125.88Z" fill="white"/>
</svg>
