<svg width="299" height="211" viewBox="0 0 299 211" fill="none" xmlns="http://www.w3.org/2000/svg">
<path d="M103.333 6.66663L99.4634 6.74669C90.872 6.92444 84 13.94 84 22.5333V71.0666V119.733C74.7313 119.956 67.3334 127.533 67.3334 136.805V142.667H149.333H232.267V136.267C232.267 127.283 224.984 120 216 120V72.4V24.7999V22.6666C216 14.1982 209.135 7.33328 200.667 7.33328L152 7.06662L103.333 6.66663ZM151.1 27C176.174 27 196.5 47.3263 196.5 72.4C196.5 87.5044 190.469 101.984 179.747 112.622L149.467 142.667H149.333L119.217 112.658C108.515 101.994 102.5 87.5079 102.5 72.4C102.5 47.3263 122.826 27 147.9 27H151.1Z" fill="white"/>
<path d="M120 180.667V197.333H128.667H137.333V194.667V192H132H126.667V178V164H123.333H120V180.667Z" fill="white"/>
<path d="M157.067 164C147.917 164 140.5 171.417 140.5 180.567V181.2V181.933C140.5 191.083 147.917 198.5 157.067 198.5C165.866 198.5 173 191.366 173 182.567V181.2V179.933C173 171.134 165.866 164 157.067 164ZM157.067 170.667C162.553 170.667 167 175.114 167 180.6V181.2V182.067C167 187.553 162.553 192 157.067 192C151.197 192 146.459 187.203 146.532 181.334L146.533 181.2C146.533 175.383 151.249 170.667 157.067 170.667Z" fill="white"/>
<path d="M193.467 164.133C184.649 164.133 177.5 171.282 177.5 180.1V181V181.633C177.5 190.451 184.649 197.6 193.467 197.6L197.867 197.6C204.2 197.6 209.333 192.466 209.333 186.133H205.5H202.667C202.667 189.373 200.04 192 196.8 192H193.333C188.179 192 184 187.821 184 182.667V181V179.967C184 174.738 188.238 170.5 193.467 170.5H197.167C200.204 170.5 202.667 172.962 202.667 176H206H209.333C209.333 169.446 204.02 164.133 197.467 164.133H193.467Z" fill="white"/>
<path d="M244.5 164V170H253.333V183.2V197.333H257.067H260.667V183.6V170H265.067H269.333V164H257.333H244.5Z" fill="white"/>
<path d="M273.333 180.667V197.333H283.333H293.333V194.667V192H286.667H280V188V184H286H292V181.333V178.667H285.867H279.867V169.867H286.667H293.333V167V164H283.467H273.333V180.667Z" fill="white"/>
<path d="M218.267 179.467L213.067 193.6L212.4 195.467L211.733 197.333H215.2H218.667L220 194L221.333 190.667H227.867H234.4L235.2 194L236 197.333H239.867H243.733L237.733 181.333L231.6 165.333H227.467H223.333L218.267 179.467ZM229.2 176.267L230.267 179.333L231.2 182.267L232.133 185.333H227.6H222.933L225.2 179.333L227.333 173.333H227.733H228L229.2 176.267Z" fill="white"/>
<path d="M120.31 51.0657L121.727 52.1067L122.394 53.4583L123.032 52.0657L124.532 51.0657L123.227 50.6066L122.394 49.44L121.727 50.6066L120.31 51.0657Z" fill="white"/>
<path d="M154 52.1333L152.5 52.5L154 53.4999L154.8 55L155.5 53.4999L157 52.5L155.5 52.1333L154.8 50.6667L154 52.1333Z" fill="white"/>
<path d="M158.767 65.3334L155.203 65.0842C154.403 65.0282 153.608 64.9021 152.83 64.7075C152.322 64.5805 151.786 64.7532 151.448 65.1529L147.535 69.7769C146.867 70.5667 146.5 71.5677 146.5 72.6023C146.5 73.1946 146.62 73.7808 146.854 74.3252L148 77L143.53 96.368C142.547 100.631 143.21 105.108 145.389 108.903C146.562 110.946 148.139 112.729 150.024 114.143L152.5 116L157.092 119.368C158.505 120.404 158.457 122.528 157 123.5L151.954 126.562C148.982 128.365 147.167 131.59 147.167 135.067V140.5L149.5 142.5L151.5 140.5L149.714 136.156C149.27 135.076 149.156 133.889 149.385 132.744C149.673 131.3 150.49 130.016 151.675 129.141L158.844 123.853C159.583 123.307 160.073 122.488 160.203 121.578C160.385 120.302 159.838 119.033 158.786 118.29L152.861 114.108C147.532 110.346 145.883 103.179 149.033 97.4667L152.5 90.8L158.454 90.4337C162.649 90.1755 166.193 87.2287 167.212 83.1511C167.403 82.3866 167.5 81.6016 167.5 80.8135V78.9245C167.5 75.6777 166.819 72.467 165.5 69.5001L178.5 53.5001V49.5001L158.767 65.3334ZM165.219 79.6494C165.077 81.5037 164.36 83.2677 163.17 84.6964L162.801 85.1392C162.601 85.379 162.374 85.5946 162.124 85.7818C161.584 86.1874 160.949 86.4501 160.28 86.5457L159.433 86.6667C158.258 86.8346 157.073 86.4394 156.233 85.6C155.439 84.8058 155.25 83.5892 155.765 82.5911L157.033 80.1334C158.517 77.4272 160.699 75.1675 163.351 73.5889L163.5 73.5001C164.785 75.1065 165.412 77.141 165.254 79.1922L165.219 79.6494Z" fill="white"/>
<path d="M128 87.5L124.267 88.6667L128 90.5L129.5 94.5L131 90.5L134.667 88.4L131 87.5L129.5 84L128 87.5Z" fill="white"/>
<path d="M5.33337 164V165.733V181.6V197.333H9.33337H13.3334V190.667V184H18.6667H24V181.333V178.667H18.6667H13.3334V174.8V170.8H19.5H26.8V167V164H16.9334H7.06671H5.33337Z" fill="white"/>
<path d="M30.6667 176V182V183.667C30.6667 191.03 36.6362 197 44 197C51.4315 197 57.4326 190.932 57.3501 183.501L57.3334 182V176V164H54.0001H50.6667V175.867V183.833C50.6667 187.515 47.6819 190.5 44 190.5C40.3181 190.5 37.3334 187.515 37.3334 183.833V175.333V164H34.0001H30.6667V176Z" fill="white"/>
<path d="M62.6667 180.667V197.333H72.6667H82.6667V194.667V192H76.0001H69.3334V188V184H75.3334H81.3334V181.467V178.4H75.7334H69.2001V174V170.667H75.8667H82.6667V167.333V164H72.6667H62.6667V180.667Z" fill="white"/>
<path d="M88 180.667V197.333H96.6667H105.333V194.667V192H100H94.6667V178V164H91.3333H88V180.667Z" fill="white"/>
</svg>
